# xmcd CD database file
#
# Track frame offsets:
#	150
#	14153
#	32423
#	53053
#	66589
#	78830
#	92453
#	105844
#	119077
#	131297
#	144368
#	157541
#	170210
#	181924
#	196569
#	211194
#	225169
#	236552
#	250341
#	262351
#	276292
#	293430
#
# Disc length: 4148 seconds
#
# Revision: 0
# Processed by: cddbd v1.5.2PL0 Copyright (c) Steve Scherf et al.
# Submitted via: CDex 1.51
#
DISCID=24103216
DTITLE=Pee Wee Russell - Weary Blues - Quadromania CD2
DYEAR=1900
DGENRE=Jazz
TTITLE0=Love Is Just Around The Corner
TTITLE1=Embraceable You
TTITLE2=Serenade To A Shylock
TTITLE3=Sunday
TTITLE4=There'll Be Some Changes Made
TTITLE5=Friar's Point Shuffle
TTITLE6=(I Ain't Give Nobody) None Of My Jelly Roll
TTITLE7=Georgia Grind
TTITLE8=Jig Walk
TTITLE9=Deuces Wild
TTITLE10=The Last Time I Saw Chicago
TTITLE11=About Face
TTITLE12=Don't Leave Me Daddy
TTITLE13=Rosetta
TTITLE14='S Wonderful
TTITLE15=Someone To Watch Over Me
TTITLE16=Squeeze Me
TTITLE17=Take Me To The Land Of Jazz
TTITLE18=Rose Of Washington Square
TTITLE19=Keepin' Out Of Mischief Now
TTITLE20=D.A. Blues
TTITLE21=Wailin' D.A. Blues
EXTD=
EXTT0=
EXTT1=
EXTT2=
EXTT3=
EXTT4=
EXTT5=
EXTT6=
EXTT7=
EXTT8=
EXTT9=
EXTT10=
EXTT11=
EXTT12=
EXTT13=
EXTT14=
EXTT15=
EXTT16=
EXTT17=
EXTT18=
EXTT19=
EXTT20=
EXTT21=
PLAYORDER=
